<svg xmlns="http://www.w3.org/2000/svg" viewBox="0 0 788 236"><defs><style>.cls-1,.cls-4{fill:#14ffec;}.cls-2{fill:none;stroke:aqua;stroke-miterlimit:10;stroke-width:5px;}.cls-3{fill:aqua;}.cls-4{font-size:147px;font-family:MicrosoftNewTaiLue-Bold, Microsoft New Tai Lue;font-weight:700;}</style></defs><title>logo</title><g id="Layer_2" data-name="Layer 2"><path class="cls-1" d="M784.6,139.8c.75,18.22.29,28.48,0,74.16-.05,7.71-.08,14.15-.09,18.56l-75,0v-48c0-4.33,0-8.67,0-13,0-12.31.1-12.27,0-14-.3-4.91-.76-12.62-5-21a43.37,43.37,0,0,0-2.91-4.92A47.81,47.81,0,0,0,689.5,119.5a41.55,41.55,0,0,0-9-5c-7.39-2.92-14.23-3-22-3H646V3.42c3.67-.1,8.25-.12,13.51.08a143.56,143.56,0,0,1,22,2c14.31,2.64,25,7.66,32,11,2.75,1.31,5.24,2.61,7.42,3.8s4,2.29,5.59,3.22a81,81,0,0,1,14,11,176.26,176.26,0,0,1,17,19,145.14,145.14,0,0,1,11,16,124.64,124.64,0,0,1,13,32.07C783.44,117.64,784.23,130.74,784.6,139.8Z"/><path class="cls-2" d="M784.5,234.5c0-.61,0-1.27,0-2,0-4.41,0-10.85.09-18.56.29-45.68.75-55.94,0-74.16-.37-9.06-1.16-22.16-3-38.09a124.64,124.64,0,0,0-13-32.07,145.14,145.14,0,0,0-11-16,176.26,176.26,0,0,0-17-19,81,81,0,0,0-14-11c-1.54-.93-3.41-2-5.59-3.22s-4.67-2.49-7.42-3.8c-7-3.37-17.71-8.39-32-11a143.56,143.56,0,0,0-22-2c-5.26-.2-9.84-.18-13.51-.08l-2.5.08"/><path class="cls-2" d="M709.5,233.5v-49c0-4.33,0-8.67,0-13,0-12.31.1-12.27,0-14-.3-4.91-.76-12.62-5-21a43.37,43.37,0,0,0-2.91-4.92A47.81,47.81,0,0,0,689.5,119.5a41.55,41.55,0,0,0-9-5c-7.39-2.92-14.23-3-22-3h-15"/><polyline class="cls-2" points="646 2.5 646 3.42 646 111.5"/><path class="cls-2" d="M707,232.5h2.5l75,0H787"/></g><g id="Layer_3" data-name="Layer 3"><path class="cls-3" d="M695.5,220.5v12H647l-.48-106c4.66,0,9,0,13,0,7,.06,9.55.16,13,1a32.82,32.82,0,0,1,9.18,3.57A28.61,28.61,0,0,1,692.5,141.5c3,5.29,3,11.86,3,25v54Z"/><polyline class="cls-2" points="646.5 124 646.51 126.49 646.99 232.5 647 235"/><polyline class="cls-2" points="644.5 232.5 646.99 232.5 695.5 232.5 698 232.5"/><path class="cls-2" d="M695.5,234.5v-68c0-13.14,0-19.71-3-25a28.61,28.61,0,0,0-10.82-10.43,32.82,32.82,0,0,0-9.18-3.57c-3.45-.84-6-.94-13-1-4,0-8.33,0-13,0h-2"/></g><g id="Layer_4" data-name="Layer 4"><text class="cls-4" transform="translate(242.55 110.5)">HRYB</text></g><g id="Layer_5" data-name="Layer 5"><text class="cls-4" transform="translate(-4.16 233.46)">CLOTHES</text></g></svg>